<svg xmlns="http://www.w3.org/2000/svg" version="1.1" viewBox="-5.0 -10.0 110.0 135.0">
 <path d="m90.449 61.328-5.9609-12.68c-3.6016-7.6484-12.301-11.238-20.238-8.3516l-15.02 5.2695-6.8516-14.57c-2.1914-4.6484-7.75-6.6484-12.398-4.4688-2.25 1.0586-3.9609 2.9297-4.8008 5.2695-0.83984 2.3398-0.73047 4.8711 0.32812 7.1211l12.852 27.328c0.12109 0.26172 0.26953 0.53125 0.44141 0.80859 0.070313 0.19141 0.14062 0.37109 0.21875 0.55859l-6.7891-2.1211c-3.8711-1.1797-7.9883 0.87891-9.3594 4.6914-1.3711 3.8086 0.48047 8.0195 4.2695 9.6016l26.172 10.078c0.51953 0.21875 3.7617 1.5391 7.7383 1.5391 2.0391 0 4.2891-0.35156 6.4609-1.3711l15.16-7.1289c3.9297-1.8516 6.8984-5.1094 8.3711-9.1914 1.4688-4.0781 1.2617-8.4883-0.57812-12.422zm-3.1797 11.062c-1.1094 3.0781-3.3516 5.5391-6.3086 6.9297l-15.16 7.1289c-4.8984 2.3008-10.672-0.12109-10.988-0.26172l-26.18-10.078c-1.7695-0.73828-2.6484-2.7305-2-4.5391 0.53125-1.4609 1.9102-2.3789 3.3789-2.3789 0.33984 0 0.69141 0.050782 1.0391 0.16016l11.102 3.4609c0.76172 0.23828 1.5781 0 2.1016-0.60156 0.51953-0.60156 0.64062-1.4492 0.30078-2.1719l-1.7383-3.6914c-0.12109-0.25-0.21094-0.51172-0.30859-0.76953l-0.039062-0.10156c-0.050781-0.12109-0.10938-0.23828-0.17969-0.35156-0.10937-0.17969-0.21875-0.35938-0.30859-0.55859l-12.852-27.34c-0.60156-1.2891-0.67188-2.7305-0.19141-4.0703s1.4492-2.3984 2.7383-3.0117c2.6484-1.25 5.8281-0.10156 7.0703 2.5508l7.6406 16.25c0.46094 0.98047 1.6211 1.4219 2.6094 0.98047l0.23828-0.10938c0.14844-0.070312 0.30859-0.14062 0.44141-0.19141l15.891-5.5781h0.019532c5.9883-2.1797 12.551 0.51953 15.27 6.2891l5.9609 12.68c1.3906 2.9609 1.5508 6.2812 0.44141 9.3594z" fill="#78350f" fill-rule="evenodd"/>
 <path d="m25.441 19.078c0.28906 0 0.57031-0.058594 0.85156-0.19141 1-0.46875 1.4297-1.6602 0.96094-2.6602l-2.6406-5.6211c-0.46875-1-1.6602-1.4297-2.6602-0.96094s-1.4297 1.6602-0.96094 2.6602l2.6406 5.6211c0.33984 0.71875 1.0586 1.1484 1.8086 1.1484z" fill="#78350f"/>
 <path d="m50.23 28.012c0.28906 0 0.57031-0.058594 0.85156-0.19141l5.6211-2.6406c1-0.46875 1.4297-1.6602 0.96094-2.6602s-1.6602-1.4297-2.6602-0.96094l-5.6211 2.6406c-1 0.46875-1.4297 1.6602-0.96094 2.6602 0.33984 0.71875 1.0586 1.1484 1.8086 1.1484z" fill="#78350f"/>
 <path d="m15.66 40.051-5.6211 2.6406c-1 0.46875-1.4297 1.6602-0.96094 2.6602 0.33984 0.71875 1.0586 1.1484 1.8086 1.1484 0.28906 0 0.57031-0.058594 0.85156-0.19141l5.6211-2.6406c1-0.46875 1.4297-1.6602 0.96094-2.6602s-1.6602-1.4297-2.6602-0.96094z" fill="#78350f"/>
 <path d="m39 18.289c0.21875 0.078126 0.44922 0.12109 0.67969 0.12109 0.82031 0 1.5898-0.51172 1.8789-1.3203l2.1094-5.8398c0.37109-1.0391-0.16016-2.1914-1.1992-2.5586-1.0391-0.37891-2.1914 0.16016-2.5586 1.1992l-2.1094 5.8398c-0.37109 1.0391 0.16016 2.1914 1.1992 2.5586z" fill="#78350f"/>
 <path d="m15.16 29.5c0.21875 0.078125 0.44922 0.12109 0.67969 0.12109 0.82031 0 1.5898-0.51172 1.8789-1.3203 0.37109-1.0391-0.16016-2.1914-1.1992-2.5586l-5.8398-2.1094c-1.0391-0.37891-2.1914 0.16016-2.5586 1.1992-0.37109 1.0391 0.16016 2.1914 1.1992 2.5586z" fill="#78350f"/>
</svg>