<svg xmlns="http://www.w3.org/2000/svg" version="1.1" viewBox="-5.0 -10.0 110.0 135.0">
 <path d="m69.914 61.895c2.1875-3.2695 7.1602 0.054688 4.9688 3.3281-4.9961 7.4688-12.953 12.305-21.883 13.195v10.582h8.7305c3.9492 0 3.9492 6 0 6h-23.461c-3.9492 0-3.9492-6 0-6h8.7305v-10.586c-8.8438-0.91406-16.961-5.8594-21.883-13.191-2.1914-3.2656 2.7734-6.6016 4.9688-3.3281 9.4023 14.012 30.188 14.426 39.828 0zm-49.172-36.641c2.7148-2.8516 7.0508 1.2656 4.3359 4.125-3.2617 3.4336-3.2617 8.8594 0 12.293 2.7148 2.8594-1.625 6.9766-4.3359 4.125-5.4688-5.7539-5.4609-14.785 0-20.543zm-9.543-6.7773c-8.2656 9.8633-8.2617 24.238 0 34.102 2.5234 3.0117 7.1133-0.83203 4.5938-3.8438-6.3984-7.6445-6.3984-18.773 0-26.414 2.5195-3.0117-2.0742-6.8594-4.5938-3.8438zm63.723 10.902c-2.7148-2.8555 1.625-6.9805 4.3359-4.125 5.4648 5.7539 5.4648 14.793 0 20.543-2.7109 2.8516-7.0508-1.2656-4.3359-4.125 3.2656-3.4375 3.2617-8.8555 0-12.293zm9.2852-7.0625c6.4023 7.6406 6.3984 18.773 0 26.414-2.5195 3.0117 2.0703 6.8555 4.5938 3.8438 8.2617-9.8672 8.2617-24.234 0-34.102-2.5234-3.0078-7.1133 0.83203-4.5938 3.8438zm-34.207-17.316c-9.5938 0-17.43 7.8398-17.43 17.43v26.188c0 4.7969 1.9609 9.1562 5.1172 12.312 11.031 11.031 29.746 3.0391 29.746-12.312v-26.184c-0.003906-9.5938-7.8398-17.434-17.434-17.434zm8.0703 9.3594c-7.2578-7.2578-19.504-1.957-19.504 8.0703v26.188c0 10.027 12.242 15.328 19.504 8.0703 2.0742-2.0742 3.3594-4.9297 3.3594-8.0703l0.003906-26.184c-0.003906-3.1445-1.2891-6-3.3633-8.0742z" fill="#831843"/>
</svg>